<svg width="32" height="32" viewBox="0 0 32 32" fill="none" xmlns="http://www.w3.org/2000/svg">
<path fill-rule="evenodd" clip-rule="evenodd" d="M9.59994 2.19995C10.1522 2.19995 10.5999 2.64767 10.5999 3.19995V4.40015H21.4001V3.19995C21.4001 2.64767 21.8478 2.19995 22.4001 2.19995C22.9523 2.19995 23.4001 2.64767 23.4001 3.19995V4.40015H27.0458C28.53 4.40015 29.7333 5.60338 29.7333 7.08765V27.046C29.7333 28.5302 28.53 29.7335 27.0458 29.7335H4.9541C3.46984 29.7335 2.2666 28.5302 2.2666 27.046V7.08765C2.2666 5.60339 3.46983 4.40015 4.9541 4.40015H8.59994V3.19995C8.59994 2.64767 9.04765 2.19995 9.59994 2.19995ZM21.4001 6.40015V7.46662C21.4001 8.0189 21.8478 8.46662 22.4001 8.46662C22.9523 8.46662 23.4001 8.0189 23.4001 7.46662V6.40015H27.0458C27.4255 6.40015 27.7333 6.70795 27.7333 7.08765V10.8002H4.2666V7.08765C4.2666 6.70795 4.57441 6.40015 4.9541 6.40015H8.59994V7.46662C8.59994 8.0189 9.04765 8.46662 9.59994 8.46662C10.1522 8.46662 10.5999 8.0189 10.5999 7.46662V6.40015H21.4001ZM4.2666 12.8002V27.046C4.2666 27.4257 4.57441 27.7335 4.9541 27.7335H27.0458C27.4255 27.7335 27.7333 27.4257 27.7333 27.046V12.8002H4.2666ZM14.9333 15.6208C14.9333 15.2412 15.2411 14.9333 15.6208 14.9333H16.3791C16.7588 14.9333 17.0666 15.2412 17.0666 15.6208V16.3792C17.0666 16.7589 16.7588 17.0667 16.3791 17.0667H15.6208C15.2411 17.0667 14.9333 16.7589 14.9333 16.3792V15.6208ZM19.8875 14.9333C19.5078 14.9333 19.2 15.2412 19.2 15.6208V16.3792C19.2 16.7589 19.5078 17.0667 19.8875 17.0667H20.6459C21.0256 17.0667 21.3334 16.7589 21.3334 16.3792V15.6208C21.3334 15.2412 21.0256 14.9333 20.6459 14.9333H19.8875ZM23.4666 15.6208C23.4666 15.2412 23.7744 14.9333 24.1541 14.9333H24.9125C25.2922 14.9333 25.6 15.2412 25.6 15.6208V16.3792C25.6 16.7589 25.2922 17.0667 24.9125 17.0667H24.1541C23.7744 17.0667 23.4666 16.7589 23.4666 16.3792V15.6208ZM24.1541 19.2C23.7744 19.2 23.4666 19.5078 23.4666 19.8875V20.6458C23.4666 21.0255 23.7744 21.3333 24.1541 21.3333H24.9125C25.2922 21.3333 25.6 21.0255 25.6 20.6458V19.8875C25.6 19.5078 25.2922 19.2 24.9125 19.2H24.1541ZM19.2 19.8875C19.2 19.5078 19.5078 19.2 19.8875 19.2H20.6459C21.0256 19.2 21.3334 19.5078 21.3334 19.8875V20.6458C21.3334 21.0255 21.0256 21.3333 20.6459 21.3333H19.8875C19.5078 21.3333 19.2 21.0255 19.2 20.6458V19.8875ZM15.6208 19.2C15.2411 19.2 14.9333 19.5078 14.9333 19.8875V20.6458C14.9333 21.0255 15.2411 21.3333 15.6208 21.3333H16.3791C16.7588 21.3333 17.0666 21.0255 17.0666 20.6458V19.8875C17.0666 19.5078 16.7588 19.2 16.3791 19.2H15.6208ZM10.6667 19.8875C10.6667 19.5078 10.9745 19.2 11.3542 19.2H12.1125C12.4922 19.2 12.8 19.5078 12.8 19.8875V20.6458C12.8 21.0255 12.4922 21.3333 12.1125 21.3333H11.3542C10.9745 21.3333 10.6667 21.0255 10.6667 20.6458V19.8875ZM7.08756 19.2C6.70787 19.2 6.40006 19.5078 6.40006 19.8875V20.6458C6.40006 21.0255 6.70787 21.3333 7.08757 21.3333H7.8459C8.22559 21.3333 8.5334 21.0255 8.5334 20.6458V19.8875C8.5334 19.5078 8.22559 19.2 7.8459 19.2H7.08756ZM6.40006 24.1544C6.40006 23.7747 6.70787 23.4669 7.08756 23.4669H7.8459C8.22559 23.4669 8.5334 23.7747 8.5334 24.1544V24.9127C8.5334 25.2924 8.22559 25.6002 7.8459 25.6002H7.08757C6.70787 25.6002 6.40006 25.2924 6.40006 24.9127V24.1544ZM11.3542 23.4669C10.9745 23.4669 10.6667 23.7747 10.6667 24.1544V24.9127C10.6667 25.2924 10.9745 25.6002 11.3542 25.6002H12.1125C12.4922 25.6002 12.8 25.2924 12.8 24.9127V24.1544C12.8 23.7747 12.4922 23.4669 12.1125 23.4669H11.3542ZM14.9333 24.1544C14.9333 23.7747 15.2411 23.4669 15.6208 23.4669H16.3791C16.7588 23.4669 17.0666 23.7747 17.0666 24.1544V24.9127C17.0666 25.2924 16.7588 25.6002 16.3791 25.6002H15.6208C15.2411 25.6002 14.9333 25.2924 14.9333 24.9127V24.1544ZM19.8875 23.4669C19.5078 23.4669 19.2 23.7747 19.2 24.1544V24.9127C19.2 25.2924 19.5078 25.6002 19.8875 25.6002H20.6459C21.0256 25.6002 21.3334 25.2924 21.3334 24.9127V24.1544C21.3334 23.7747 21.0256 23.4669 20.6459 23.4669H19.8875Z" fill="white"/>
</svg>
