<svg width="52" height="53" viewBox="0 0 52 53" fill="none" xmlns="http://www.w3.org/2000/svg">
<path d="M20.2193 4.47109C19.7928 4.58193 19.265 4.66145 18.8385 4.50964C18.4723 4.37952 18.2554 4.10964 18.159 3.73855L18.1349 3.63976L18.6265 3.51205L18.6506 3.61084C18.8217 4.27349 19.6265 4.14097 20.1277 4.01326C20.4096 3.94097 20.7663 3.82289 20.9879 3.62771C21.1397 3.49277 21.2193 3.33133 21.1663 3.12892L21.1542 3.08072C21.1133 2.92409 21.0265 2.81084 20.8699 2.76024C20.6626 2.69277 20.3301 2.72651 20.1157 2.75543L19.3229 2.86145C18.7446 2.93856 18.0386 2.90482 17.8651 2.23253L17.8506 2.17711C17.7663 1.84458 17.853 1.55542 18.0867 1.30723C18.3735 1.00362 18.8169 0.834941 19.212 0.733736C19.6241 0.627712 20.1229 0.555424 20.5325 0.704822C20.8891 0.832533 21.0964 1.10001 21.1903 1.46145L21.2169 1.56024L20.7253 1.68795L20.6988 1.58916C20.5374 0.960247 19.812 1.06386 19.3277 1.18916C19.0578 1.25904 18.7301 1.36988 18.5181 1.55784C18.3711 1.68796 18.294 1.84699 18.3422 2.04217L18.3542 2.09036C18.3904 2.23253 18.4771 2.32892 18.6169 2.37229C18.812 2.43494 19.1036 2.41085 19.3036 2.38434L20.0988 2.28313C20.4241 2.24217 20.8458 2.22048 21.1566 2.34578C21.4193 2.45422 21.5735 2.66386 21.6434 2.93615L21.6578 2.99157C21.747 3.33373 21.6554 3.63012 21.4096 3.88313C21.106 4.19157 20.6289 4.36747 20.2193 4.47109ZM28.3879 3.87109C28.0096 3.83494 27.6337 3.73856 27.306 3.53856C27.0144 3.36024 26.7855 3.12169 26.6386 2.81325C26.4843 2.49277 26.441 2.14578 26.4747 1.79398L26.4819 1.70964C26.5157 1.35784 26.6193 1.02048 26.8313 0.731324C27.0337 0.454216 27.3012 0.261449 27.6217 0.140967C27.9807 0.00602761 28.3663 -0.0204781 28.747 0.0132568C29.1253 0.0494014 29.4988 0.148193 29.8241 0.348193C30.1157 0.526506 30.3422 0.767474 30.4916 1.07591C30.6458 1.39639 30.6891 1.74337 30.6554 2.09518L30.6482 2.17711C30.6144 2.52891 30.5084 2.86386 30.2988 3.1482C30.0964 3.4229 29.8289 3.61807 29.5084 3.73855C29.1494 3.87831 28.7638 3.90723 28.3879 3.87109ZM35.4458 5.29759L37.9687 6.50241L37.7663 6.9241L34.7879 5.5L36.4048 2.11687L36.8626 2.33614L35.4458 5.29759ZM42.2626 10.8855C42.0072 10.6012 41.8 10.2759 41.694 9.90723C41.6 9.57952 41.5976 9.24458 41.6964 8.91928C41.8 8.57952 42.0048 8.29518 42.2675 8.06145L42.3301 8.00602C42.5928 7.76988 42.8988 7.59398 43.2506 7.52651C43.5879 7.46145 43.9156 7.5 44.2313 7.63012C44.5855 7.7747 44.8891 8.01807 45.1422 8.3C45.3952 8.58193 45.6024 8.90723 45.706 9.27591C45.7976 9.60362 45.8024 9.93856 45.7012 10.2639C45.5976 10.6036 45.3928 10.8879 45.1301 11.1241L45.0675 11.1795C44.8048 11.4157 44.5012 11.5892 44.1518 11.6566C43.8144 11.7217 43.4867 11.6831 43.1711 11.553C42.8169 11.4108 42.5157 11.1699 42.2626 10.8855ZM50.4048 19.2108L47.0241 18.7193L46.8554 18.2542L49.1397 15.7072L46.3036 16.7386L46.1325 16.2687L49.6554 14.9867L49.8795 15.606L47.5108 18.2855L51.0458 18.8108L51.2699 19.4301L47.747 20.712L47.5759 20.2398L50.4048 19.2108ZM52 25.953L48.2506 25.9819L48.2458 25.4687L51.9952 25.4398L52 25.953ZM50.5518 32.0783L47.6771 31.206L47.8217 30.7313L51.4096 31.8205L51.2699 32.2783L47.6458 33.8735L50.5205 34.7458L50.3759 35.2205L46.788 34.1313L46.9277 33.6735L50.5518 32.0783ZM25.3398 50.5241L22.8121 50.2904L22.6602 51.9265L22.1542 51.8807L22.5012 48.1482L23.0048 48.194L22.853 49.8301L25.3831 50.0639L25.5349 48.4277L26.0409 48.4735L25.6964 52.206L25.1904 52.1602L25.3398 50.5241ZM16.2121 46.0903C16.5566 46.2542 16.8723 46.4759 17.1133 46.7771C17.3253 47.0446 17.4578 47.3482 17.4891 47.6903C17.5229 48.0446 17.4434 48.3843 17.2892 48.7024L17.253 48.7771C17.0988 49.0976 16.8843 49.3747 16.5879 49.5723C16.3012 49.7626 15.9831 49.8494 15.641 49.8542C15.2578 49.8566 14.8843 49.7482 14.5422 49.5843C14.2 49.4205 13.8843 49.1988 13.6482 48.8976C13.4361 48.6277 13.306 48.3241 13.2747 47.9819C13.241 47.6277 13.3205 47.2879 13.4723 46.9699L13.5084 46.8952C13.6602 46.5771 13.8747 46.3 14.1711 46.1048C14.4578 45.9144 14.7759 45.8277 15.1181 45.8229C15.5012 45.8181 15.8723 45.9265 16.2121 46.0903ZM7.31083 43.6687L9.64338 41.3602L10.0048 41.7241L7.67228 44.0325L8.83133 45.206L8.4988 45.5337L5.81928 42.8253L6.15181 42.4952L7.31083 43.6687ZM3.02649 37.5819L4.08432 37.0783L3.0024 34.8084L3.42409 34.606L4.50601 36.8759L5.56867 36.3699L4.43856 33.9988L4.86025 33.7988L6.20964 36.6277L2.8265 38.2422L1.47711 35.4132L1.8988 35.2133L3.02649 37.5819ZM3.26266 28.8807L2.96625 26.1024L3.43132 26.0518L3.78071 29.3361L0.053005 29.7337L0 29.2301L3.26266 28.8807ZM28.4313 3.39398C28.8482 3.43253 29.2795 3.38434 29.6217 3.1265C29.9446 2.88554 30.0916 2.53133 30.1301 2.13615L30.1397 2.04217C30.1759 1.64217 30.094 1.27109 29.8193 0.9747C29.5301 0.659037 29.1181 0.528915 28.7012 0.49036C28.2819 0.451806 27.8506 0.502415 27.506 0.760246C27.1807 1.00121 27.0289 1.35542 26.9928 1.7506L26.9831 1.84458C26.947 2.24458 27.0289 2.61325 27.306 2.90964C27.5976 3.22771 28.012 3.35542 28.4313 3.39398ZM42.6193 10.5675C42.8988 10.8783 43.2482 11.1361 43.6747 11.1819C44.0771 11.2253 44.4217 11.0663 44.7205 10.8012L44.7904 10.7386C45.0891 10.4711 45.2819 10.1434 45.2819 9.73615C45.2843 9.30723 45.0699 8.93373 44.7904 8.62289C44.5084 8.30964 44.159 8.05422 43.7301 8.00843C43.3253 7.96506 42.9783 8.11928 42.6795 8.38675L42.6096 8.4494C42.3108 8.71687 42.1205 9.04458 42.1229 9.4518C42.1205 9.87831 42.3397 10.2542 42.6193 10.5675ZM16.0072 46.5217C15.6313 46.341 15.2096 46.2373 14.7976 46.3602C14.4096 46.4759 14.1494 46.753 13.9783 47.112L13.9373 47.1964C13.7663 47.5554 13.7133 47.9361 13.8675 48.3096C14.0313 48.7072 14.3711 48.9699 14.7494 49.1506C15.1277 49.3313 15.5518 49.4349 15.9639 49.312C16.3542 49.1964 16.6168 48.9217 16.7903 48.5602L16.8313 48.4735C17.0024 48.1144 17.0554 47.7337 16.8988 47.3626C16.7301 46.9651 16.3855 46.7024 16.0072 46.5217Z" fill="white"/>
<path d="M25.1442 30.2345C23.2454 30.3574 21.8309 30.8971 21.8285 33.0224C21.8261 35.0706 23.3345 36.4851 25.3996 36.3959C28.4357 36.2658 29.5635 33.1791 28.2623 30.7429C26.443 27.7381 19.6622 28.2032 19.5538 23.22C19.4815 19.8393 22.4984 18.2803 25.5369 18.2803C27.5177 18.2803 29.5972 18.8152 31.2333 19.9502L31.3152 20.008L30.19 23.6947L29.7514 22.8803C28.9418 21.3742 27.3249 19.9911 25.5225 19.9911C24.0406 19.9911 22.3394 20.5767 22.3779 22.314C22.3851 22.6393 22.4598 22.9477 22.6092 23.2345C23.5924 25.1309 28.6671 25.8465 30.508 28.0827C31.4261 29.1959 32.0357 30.5646 32.0911 32.02C32.2333 35.673 28.8382 37.9983 25.4574 38.1453C22.2863 38.2827 18.8478 36.5236 18.6502 33.0489C18.4333 29.2152 22.3634 27.2297 25.2839 29.808L25.7273 30.1983L25.1442 30.2345Z" fill="white"/>
<path d="M34.9272 34.9431C35.7248 34.9431 36.373 35.5913 36.373 36.3889C36.373 37.1889 35.7248 37.8347 34.9272 37.8347C34.1272 37.8347 33.4815 37.1865 33.4815 36.3889C33.479 35.5913 34.1272 34.9431 34.9272 34.9431Z" fill="white"/>
<path d="M19.6076 12.5556V12.7218H18.4678V13.264H19.5594V13.4303H18.4678V13.9748H19.6076V14.1411H18.2847V12.5507H19.6076V12.5556ZM20.8871 14.1724C20.634 14.1724 20.4413 14.1291 20.3136 14.0423C20.1835 13.9556 20.1184 13.8278 20.1184 13.6592V13.6327H20.3015V13.6592C20.3015 13.8905 20.4991 14.0062 20.8967 14.0062C21.0774 14.0062 21.2148 13.9821 21.3064 13.9363C21.4003 13.8905 21.4461 13.8206 21.4461 13.7315V13.7098C21.4461 13.6278 21.4148 13.5676 21.3521 13.5291C21.2895 13.4905 21.1811 13.4616 21.0292 13.4423L20.6847 13.4013C20.3329 13.3604 20.157 13.2254 20.157 12.9965V12.9724C20.157 12.8327 20.2196 12.7242 20.3425 12.6471C20.4654 12.57 20.6413 12.5315 20.8678 12.5315C21.1088 12.5315 21.2919 12.5724 21.4148 12.6592C21.5401 12.7435 21.6003 12.8688 21.6003 13.0327V13.0592H21.4172V13.0327C21.4172 12.811 21.2341 12.6977 20.8678 12.6977C20.6991 12.6977 20.5714 12.7218 20.4798 12.7676C20.3883 12.8134 20.3449 12.8809 20.3449 12.9676V12.9893C20.3449 13.0616 20.3738 13.1146 20.4341 13.1507C20.4919 13.1869 20.5907 13.2158 20.728 13.2327L21.0726 13.276C21.2702 13.3025 21.4124 13.3483 21.5015 13.4134C21.5907 13.4784 21.6341 13.5748 21.6341 13.7001V13.7242C21.6341 13.8688 21.569 13.9797 21.4413 14.0568C21.3136 14.1339 21.128 14.1724 20.8871 14.1724ZM21.916 12.7242V12.558H23.5329V12.7242H22.8172V14.1459H22.6317V12.7242H21.916ZM23.7521 14.1724C23.716 14.1724 23.6871 14.1604 23.6654 14.1387C23.6437 14.117 23.6316 14.0881 23.6316 14.0519C23.6316 14.0182 23.6437 13.9893 23.6654 13.9676C23.6871 13.9459 23.716 13.9339 23.7521 13.9339C23.7883 13.9339 23.8172 13.9459 23.8389 13.9676C23.8606 13.9893 23.8726 14.0182 23.8726 14.0519C23.8726 14.0881 23.8606 14.117 23.8389 14.1387C23.8172 14.1628 23.7883 14.1724 23.7521 14.1724ZM26.2341 14.1459H26.0533V12.8592C25.9738 12.9146 25.8606 12.9411 25.716 12.9411H25.4389V12.77H25.7015C25.8196 12.77 25.9088 12.7531 25.9666 12.717C26.0244 12.6833 26.0533 12.6278 26.0533 12.5556H26.2341V14.1459V14.1459ZM27.6606 12.5291C27.8196 12.5291 27.9594 12.5531 28.0799 12.6013C28.2003 12.6495 28.2919 12.717 28.3546 12.8062C28.4172 12.8929 28.4509 12.9965 28.4509 13.1146V13.5411C28.4509 13.7387 28.381 13.8929 28.2437 14.0037C28.1039 14.1146 27.9136 14.17 27.6678 14.17C27.5184 14.17 27.3907 14.1507 27.2798 14.1122C27.169 14.0712 27.0847 14.0158 27.0244 13.9435C26.9642 13.8712 26.9353 13.7845 26.9353 13.6857V13.664H27.1184V13.6857C27.1184 13.7797 27.169 13.8568 27.2654 13.9146C27.3642 13.97 27.4967 13.9989 27.6654 13.9989C27.8557 13.9989 28.0052 13.958 28.1088 13.8785C28.2148 13.7989 28.2654 13.6857 28.2654 13.5435V13.3507C28.1208 13.4809 27.916 13.5435 27.6437 13.5435C27.4027 13.5435 27.2196 13.5025 27.0943 13.423C26.969 13.3435 26.9039 13.2254 26.9039 13.0712V13.0351C26.9039 12.876 26.9714 12.7531 27.1063 12.664C27.2437 12.5748 27.4268 12.5291 27.6606 12.5291ZM27.6485 13.3748C27.7907 13.3748 27.916 13.3556 28.0244 13.317C28.1329 13.2784 28.2148 13.223 28.2654 13.1556V13.1146C28.2654 12.9893 28.2124 12.8881 28.1039 12.8134C27.9955 12.7387 27.8461 12.7025 27.6558 12.7025C27.4798 12.7025 27.3425 12.7315 27.2413 12.7893C27.1401 12.8471 27.0919 12.9266 27.0919 13.0303V13.0688C27.0919 13.2736 27.2774 13.3748 27.6485 13.3748ZM30.4509 13.9797V14.1459H28.9979V13.9965L29.6726 13.6013C29.822 13.5146 29.9353 13.4423 30.0076 13.3869C30.0799 13.3315 30.1305 13.2785 30.157 13.2303C30.1835 13.1821 30.1979 13.1242 30.1979 13.0592V13.0351C30.1979 12.9291 30.1546 12.8471 30.0702 12.7893C29.9859 12.7315 29.863 12.7025 29.7039 12.7025C29.5401 12.7025 29.4172 12.7315 29.3304 12.7917C29.2461 12.8495 29.2027 12.9363 29.2027 13.0495V13.0977H29.0172V13.0471C29.0172 12.8833 29.0774 12.7556 29.1931 12.6664C29.3112 12.5772 29.4798 12.5315 29.6967 12.5315C29.9112 12.5315 30.0798 12.5748 30.2003 12.664C30.3208 12.7507 30.381 12.876 30.381 13.0303V13.0544C30.381 13.1387 30.3642 13.2158 30.328 13.2833C30.2919 13.3483 30.2316 13.4182 30.1449 13.4857C30.0582 13.5556 29.9329 13.6375 29.7666 13.7363L29.3473 13.9821H30.4509V13.9797ZM31.7473 13.1941C31.9762 13.1965 32.1521 13.2351 32.275 13.3122C32.3979 13.3893 32.4581 13.5025 32.4581 13.6471V13.6784C32.4581 13.8399 32.3931 13.9628 32.2654 14.0471C32.1377 14.1315 31.9521 14.1724 31.7063 14.1724C31.4726 14.1724 31.2895 14.1315 31.157 14.0519C31.0244 13.9724 30.9594 13.8616 30.9594 13.7194V13.6977H31.1425V13.7194C31.1425 13.8038 31.1931 13.8736 31.2943 13.9242C31.3955 13.9748 31.5328 14.0013 31.7039 14.0013C31.8895 14.0013 32.0292 13.9748 32.1256 13.9218C32.222 13.8688 32.2678 13.7893 32.2678 13.6833V13.6495C32.2678 13.5531 32.2196 13.4784 32.128 13.4303C32.034 13.3797 31.8967 13.3556 31.716 13.3556H31.4702V13.1917L32.1208 12.7266H30.9834V12.5604H32.4172V12.7266L31.7473 13.1941Z" fill="white"/>
</svg>
