<svg width="32" height="32" viewBox="0 0 32 32" fill="none" xmlns="http://www.w3.org/2000/svg">
<path d="M23.2728 27.1516V24.5658C23.2728 23.1941 22.762 21.8787 21.8528 20.9088C20.9435 19.9389 19.7103 19.394 18.4244 19.394H8.72739C7.44149 19.394 6.20826 19.9389 5.29899 20.9088C4.38973 21.8787 3.87891 23.1941 3.87891 24.5658V27.1516" stroke="white" stroke-width="2" stroke-linecap="round" stroke-linejoin="round"/>
<path d="M13.5755 14.5454C16.2533 14.5454 18.424 12.3746 18.424 9.69687C18.424 7.01913 16.2533 4.84839 13.5755 4.84839C10.8978 4.84839 8.72705 7.01913 8.72705 9.69687C8.72705 12.3746 10.8978 14.5454 13.5755 14.5454Z" stroke="white" stroke-width="2" stroke-linecap="round" stroke-linejoin="round"/>
<path d="M29.0907 27.1516V24.5085C29.0898 23.3372 28.7085 22.1994 28.0064 21.2737C27.3044 20.348 26.3214 19.6869 25.2119 19.394" stroke="white" stroke-width="2" stroke-linecap="round" stroke-linejoin="round"/>
<path d="M20.3638 4.84839C21.4733 5.12403 22.4568 5.75015 23.1591 6.62801C23.8614 7.50588 24.2426 8.58558 24.2426 9.69687C24.2426 10.8082 23.8614 11.8879 23.1591 12.7657C22.4568 13.6436 21.4733 14.2697 20.3638 14.5454" stroke="white" stroke-width="2" stroke-linecap="round" stroke-linejoin="round"/>
</svg>
