<svg width="24" height="25" viewBox="0 0 24 25" fill="none" xmlns="http://www.w3.org/2000/svg">
<path d="M17.038 14.2872C16.7623 14.1477 15.4196 13.4925 15.1687 13.399C14.9177 13.3096 14.7356 13.2628 14.5527 13.5385C14.3739 13.8073 13.8473 14.4227 13.6864 14.6021C13.5256 14.7815 13.3674 14.7953 13.0959 14.6736C12.8202 14.534 11.9395 14.2473 10.8938 13.3096C10.0771 12.5829 9.53325 11.6878 9.37169 11.4121C9.21081 11.1398 9.35381 10.9858 9.48994 10.8497C9.61506 10.7246 9.76562 10.5348 9.90519 10.3698C10.0379 10.2048 10.0805 10.0942 10.1774 9.9154C10.2668 9.72221 10.2207 9.57165 10.1527 9.43553C10.0846 9.2994 9.53669 7.94984 9.30775 7.41221C9.08912 6.87872 8.86019 6.94678 8.69175 6.94678C8.53431 6.93234 8.35144 6.93234 8.16925 6.93234C7.98706 6.93234 7.68937 7.0004 7.43844 7.26165C7.1875 7.53734 6.47869 8.19596 6.47869 9.52834C6.47869 10.8642 7.45975 12.1567 7.59587 12.3498C7.73544 12.5286 9.52569 15.2786 12.2723 16.4604C12.9274 16.7361 13.4362 16.9011 13.8336 17.0372C14.4887 17.2448 15.0869 17.216 15.5592 17.1479C16.0817 17.062 17.1776 16.4852 17.4072 15.841C17.6402 15.1927 17.6402 14.6557 17.5722 14.534C17.5041 14.4089 17.3254 14.3408 17.0497 14.2192L17.038 14.2872ZM12.0571 21.0405H12.0426C10.4167 21.0405 8.80931 20.5998 7.40544 19.7762L7.07613 19.5796L3.63863 20.4747L4.56263 17.13L4.34056 16.7863C3.43269 15.3428 2.95106 13.6722 2.95113 11.9669C2.95113 6.97565 7.03694 2.90428 12.0639 2.90428C14.4991 2.90428 16.7836 3.85303 18.5024 5.57178C19.3503 6.40956 20.0228 7.4078 20.4808 8.50827C20.9388 9.60873 21.173 10.7894 21.1699 11.9813C21.163 16.9692 17.0806 21.0405 12.0605 21.0405H12.0571ZM19.8093 4.26484C17.7179 2.24496 14.9679 1.10303 12.0426 1.10303C6.00913 1.10303 1.09625 5.99459 1.09281 12.0061C1.09281 13.9256 1.594 15.7983 2.55375 17.4559L1 23.103L6.808 21.5885C8.41696 22.4559 10.2154 22.9122 12.0433 22.9167H12.0468C18.0837 22.9167 22.9966 18.0252 23 12.0095C23 9.09865 21.8649 6.35896 19.7956 4.2999L19.8093 4.26484Z" fill="white"/>
</svg>
