<svg width="579" height="220" viewBox="0 0 579 220" fill="none" xmlns="http://www.w3.org/2000/svg">
<path d="M29.8606 109.356C21.137 109.917 14.6403 112.403 14.6319 122.156C14.6235 131.567 21.5472 138.063 31.0327 137.653C44.972 137.05 50.1543 122.876 44.1851 111.691C35.8298 97.886 4.68595 100.021 4.192 77.1401C3.85712 61.6101 17.7212 54.4436 31.6689 54.4436C40.7693 54.4436 50.3134 56.905 57.8315 62.1124L58.2082 62.3719L53.0343 79.3085L51.025 75.5746C47.2995 68.6509 39.8735 62.2966 31.6019 62.2966C24.7955 62.2966 16.9845 64.9923 17.1519 72.9709C17.1854 74.4611 17.5286 75.876 18.2151 77.1987C22.736 85.9056 46.0437 89.1958 54.4994 99.4683C58.7105 104.584 61.5152 110.871 61.7747 117.552C62.4193 134.338 46.8307 145.004 31.3089 145.682C16.7417 146.318 0.943696 138.231 0.0395187 122.274C-0.95675 104.659 17.0933 95.5501 30.5136 107.388L32.548 109.188L29.8606 109.356ZM462.878 65.1598C462.878 58.6296 460.45 57.4575 457.545 55.0883H483.188C480.283 57.4659 477.855 58.6631 477.855 65.1598V127.138C477.855 133.634 480.283 134.84 483.188 137.209H457.545C460.458 134.832 462.878 133.668 462.878 127.138V65.1598ZM521.808 80.1206V127.129C521.808 133.66 524.236 134.832 527.141 137.201H507.986C510.899 134.823 513.319 133.66 513.319 127.129V65.1598C513.319 58.6296 510.891 57.4575 507.986 55.0883H521.247L564.773 117.435V65.1681C564.773 58.638 562.203 57.491 559.44 55.0966H578.595C575.682 57.4743 573.262 58.638 573.262 65.1681V141.797H564.849L521.808 80.1206ZM283.122 62.2966C275.035 62.2966 265.951 66.3905 265.248 75.4406C264.603 83.6787 269.735 87.1279 276.651 89.1874C253.946 102.465 242.108 79.9782 255.963 65.0593C262.552 57.9599 273.612 54.452 283.122 54.452C306.773 54.452 322.906 72.9457 322.906 96.0441C322.906 119.142 306.874 137.954 283.122 137.954C267.676 137.954 249.333 130.52 245.775 113.91C243.288 102.273 251.116 98.4804 260.928 96.7139C260.283 98.899 259.873 101.678 259.99 104.14C260.61 117.535 266.73 130.11 283.122 130.11C301.139 130.11 306.664 110.662 306.664 95.9436C306.664 81.234 300.913 62.2966 283.122 62.2966ZM197.502 128.72H216.958C223.798 128.72 226.385 126.342 228.863 122.533L231.015 119.235V137.209H177.099C180.004 134.832 182.432 133.668 182.432 127.138V65.1681C182.432 58.638 180.004 57.4659 177.099 55.0966H202.734C199.837 57.4659 197.384 58.6463 197.401 65.1681L197.502 128.72ZM411.557 83.4777L387.379 137.201H381.225L357.298 81.1001V127.129C357.298 133.66 359.718 134.832 362.631 137.201H343.476C346.389 134.823 348.809 133.66 348.809 127.129V65.1598C348.809 58.6296 346.381 57.4575 343.476 55.0883H362.154L387.68 114.831L414.613 55.0883H431.868C428.954 57.4659 426.535 58.6296 426.535 65.1598V127.129C426.535 133.66 428.962 134.832 431.868 137.201H406.124C408.937 134.915 411.565 133.567 411.565 127.129V83.4777H411.557ZM119.257 137.954C95.5055 137.954 79.4731 119.142 79.4731 96.0441C79.4731 72.9457 95.606 54.452 119.257 54.452C142.908 54.452 159.041 72.9457 159.041 96.0441C159.041 119.142 143.008 137.954 119.257 137.954ZM119.257 62.2966C101.45 62.2966 95.5808 81.1671 95.606 95.9269C95.6394 110.67 101.224 130.101 119.257 130.101C137.273 130.101 142.799 110.653 142.799 95.9353C142.799 81.234 137.047 62.2966 119.257 62.2966Z" fill="white"/>
<path d="M230.027 0.26791V1.95069H218.582V7.40085H229.541V9.08363H218.582V14.5589H230.027V16.2417H216.732V0.26791H230.027ZM242.886 16.5096C240.341 16.5096 238.415 16.0743 237.118 15.1952C235.82 14.3162 235.167 13.0352 235.167 11.3524V11.0846H237.017V11.3524C237.017 13.6715 239.01 14.8352 242.987 14.8352C244.803 14.8352 246.176 14.6008 247.114 14.132C248.043 13.6631 248.512 12.9682 248.512 12.0641V11.8464C248.512 11.0343 248.202 10.4315 247.574 10.0297C246.947 9.63619 245.867 9.34317 244.326 9.16736L240.868 8.75714C237.327 8.34691 235.561 6.99063 235.561 4.68833V4.44553C235.561 3.04741 236.18 1.95905 237.419 1.18046C238.658 0.401859 240.416 0.00838018 242.694 0.00838018C245.113 0.00838018 246.947 0.435352 248.194 1.2893C249.441 2.14324 250.069 3.39066 250.069 5.04832V5.31623H248.219V5.04832C248.219 2.81299 246.377 1.69116 242.694 1.69116C241.002 1.69116 239.705 1.92557 238.801 2.38603C237.888 2.84649 237.436 3.51624 237.436 4.3953V4.61298C237.436 5.3246 237.729 5.8688 238.323 6.24554C238.918 6.62228 239.906 6.89854 241.287 7.07436L244.745 7.50969C246.72 7.76922 248.16 8.22969 249.056 8.89945C249.952 9.56084 250.396 10.5236 250.396 11.771V12.0138C250.396 13.4622 249.751 14.5673 248.462 15.3459C247.156 16.1245 245.306 16.5096 242.886 16.5096ZM253.209 1.95069V0.26791H269.45V1.95069H262.267V16.2417H260.392V1.95069H253.209ZM271.661 16.5096C271.309 16.5096 271.016 16.4008 270.79 16.1831C270.564 15.9654 270.447 15.6724 270.447 15.3208C270.447 14.9775 270.564 14.7013 270.79 14.4752C271.016 14.2575 271.309 14.1487 271.661 14.1487C272.021 14.1487 272.314 14.2575 272.54 14.4752C272.766 14.6929 272.883 14.9775 272.883 15.3208C272.883 15.6724 272.766 15.9654 272.54 16.1831C272.314 16.4008 272.021 16.5096 271.661 16.5096ZM299.322 16.2417H297.497V3.31533C296.701 3.86789 295.571 4.14415 294.114 4.14415H291.343V2.41114H293.972C295.153 2.41114 296.04 2.23533 296.626 1.89208C297.212 1.54046 297.497 1.00466 297.497 0.276291H299.322V16.2417ZM313.663 0C315.27 0 316.677 0.24281 317.874 0.728386C319.071 1.21396 320.001 1.90046 320.637 2.78789C321.282 3.67533 321.6 4.70508 321.6 5.8939V10.1804C321.6 12.1562 320.905 13.7134 319.507 14.8268C318.109 15.9487 316.183 16.5096 313.713 16.5096C312.223 16.5096 310.925 16.3087 309.82 15.9152C308.715 15.5133 307.861 14.9524 307.267 14.2241C306.664 13.4957 306.363 12.6334 306.363 11.6455V11.4278H308.213V11.6455C308.213 12.5999 308.707 13.3617 309.703 13.931C310.691 14.5003 312.031 14.785 313.722 14.785C315.639 14.785 317.121 14.3831 318.176 13.5794C319.23 12.7757 319.758 11.6538 319.758 10.2055V8.25481C318.309 9.55247 316.233 10.2055 313.521 10.2055C311.101 10.2055 309.259 9.80362 307.995 8.99991C306.731 8.1962 306.095 7.01576 306.095 5.45857V5.09019C306.095 3.49951 306.773 2.25209 308.121 1.35629C309.46 0.45211 311.311 0 313.663 0ZM313.546 8.49761C314.977 8.49761 316.233 8.30504 317.33 7.91156C318.427 7.51807 319.23 6.97388 319.75 6.27901V5.86041C319.75 4.59623 319.205 3.5916 318.117 2.83812C317.029 2.09301 315.53 1.71628 313.613 1.71628C311.846 1.71628 310.457 2.00092 309.452 2.57859C308.447 3.15626 307.945 3.95996 307.945 4.99809V5.39157C307.945 7.46783 309.812 8.49761 313.546 8.49761ZM341.693 14.5589V16.2417H327.108V14.7347L333.873 10.7664C335.38 9.88735 336.502 9.17573 337.23 8.6148C337.959 8.05388 338.461 7.53481 338.737 7.04086C339.014 6.55528 339.147 5.97761 339.147 5.30785V5.06508C339.147 3.99346 338.72 3.173 337.858 2.59533C336.996 2.01766 335.774 1.73301 334.183 1.73301C332.542 1.73301 331.294 2.02603 330.432 2.62044C329.57 3.21485 329.143 4.07718 329.143 5.21577V5.70133H327.293V5.19065C327.293 3.533 327.887 2.26046 329.068 1.35629C330.248 0.45211 331.939 0.00838018 334.133 0.00838018C336.293 0.00838018 337.975 0.452094 339.198 1.33953C340.412 2.22696 341.023 3.44928 341.023 5.03158V5.27438C341.023 6.1367 340.847 6.89853 340.487 7.55992C340.127 8.22131 339.516 8.90782 338.645 9.60269C337.774 10.2976 336.51 11.1348 334.836 12.1059L330.625 14.5673H341.693V14.5589ZM354.719 6.67249C357.022 6.68924 358.788 7.08273 360.019 7.86133C361.241 8.63992 361.861 9.76178 361.861 11.2185V11.5366C361.861 13.1608 361.216 14.3915 359.935 15.2371C358.654 16.0826 356.779 16.5012 354.309 16.5012C351.957 16.5012 350.115 16.0994 348.792 15.2957C347.469 14.492 346.808 13.3785 346.808 11.9469V11.7292H348.658V11.9469C348.658 12.8092 349.169 13.4957 350.19 14.0064C351.212 14.5171 352.585 14.7766 354.309 14.7766C356.176 14.7766 357.591 14.5087 358.545 13.9729C359.5 13.4371 359.985 12.6417 359.985 11.5869V11.2436C359.985 10.2725 359.517 9.53572 358.571 9.02502C357.633 8.5227 356.251 8.27155 354.435 8.27155H351.973V6.61391L358.503 1.94231H347.084V0.25953H361.476V1.94231L354.719 6.67249Z" fill="white"/>
<path d="M123.359 173.292L120.412 179.948L131.02 184.653L133.967 178.006L135.683 178.768L129.102 193.603L127.386 192.841L130.333 186.185L119.726 181.48L116.779 188.128L115.054 187.366L121.635 172.53L123.359 173.292ZM142.632 181.346L137.14 196.625L135.348 195.98L140.84 180.702L142.632 181.346ZM150.175 201.422C147.722 200.602 146.006 199.564 145.034 198.3C144.063 197.035 143.846 195.595 144.39 193.963L144.473 193.703L146.257 194.298L146.173 194.557C145.428 196.793 146.977 198.551 150.811 199.823C152.561 200.409 153.967 200.619 155.022 200.468C156.069 200.317 156.747 199.798 157.031 198.919L157.098 198.71C157.358 197.923 157.249 197.245 156.772 196.659C156.295 196.073 155.349 195.453 153.917 194.783L150.719 193.276C147.437 191.753 146.165 189.877 146.901 187.659L146.977 187.424C147.429 186.076 148.375 185.231 149.823 184.871C151.271 184.519 153.088 184.703 155.282 185.432C157.617 186.21 159.25 187.207 160.179 188.429C161.109 189.651 161.31 191.066 160.782 192.657L160.698 192.916L158.915 192.322L158.999 192.062C159.719 189.902 158.296 188.228 154.746 187.048C153.122 186.503 151.791 186.311 150.769 186.462C149.748 186.621 149.095 187.115 148.81 187.96L148.743 188.169C148.517 188.856 148.626 189.475 149.078 190.028C149.53 190.581 150.392 191.158 151.665 191.778L154.855 193.31C156.68 194.197 157.919 195.101 158.563 196.031C159.217 196.952 159.334 198.023 158.932 199.229L158.857 199.463C158.396 200.861 157.417 201.724 155.918 202.059C154.419 202.419 152.511 202.201 150.175 201.422ZM164.114 190.154L164.558 188.504L180.49 192.833L180.046 194.482L173.005 192.573L169.196 206.588L167.354 206.086L171.163 192.071L164.114 190.154ZM187.874 211.159C186.066 210.791 184.55 210.146 183.345 209.217C182.131 208.287 181.285 207.149 180.808 205.784C180.322 204.428 180.247 202.938 180.582 201.322L180.657 200.962C180.984 199.329 181.637 197.981 182.616 196.91C183.587 195.847 184.818 195.118 186.292 194.741C187.765 194.356 189.406 194.348 191.223 194.716C193.014 195.085 194.521 195.729 195.727 196.667C196.932 197.596 197.778 198.752 198.264 200.108C198.749 201.464 198.825 202.963 198.498 204.579L198.423 204.939C198.096 206.554 197.443 207.894 196.472 208.957C195.501 210.02 194.27 210.749 192.797 211.134C191.298 211.519 189.666 211.527 187.874 211.159ZM188.217 209.443C190.419 209.886 192.244 209.677 193.709 208.815C195.174 207.952 196.104 206.538 196.497 204.587L196.581 204.177C196.974 202.218 196.664 200.552 195.651 199.179C194.63 197.806 193.031 196.893 190.854 196.449C188.653 196.006 186.811 196.215 185.337 197.086C183.855 197.956 182.918 199.371 182.524 201.33L182.44 201.74C182.047 203.699 182.365 205.357 183.387 206.73C184.408 208.086 186.024 208.991 188.217 209.443ZM219.587 204.905C219.378 206.261 218.7 207.258 217.569 207.911C216.431 208.564 214.991 208.748 213.249 208.48L213.124 208.463L217.854 215.713L217.812 216.006L215.661 215.671L210.679 208.086L205.346 207.258L204.308 213.905L202.45 213.62L204.953 197.58L214.706 199.103C216.464 199.38 217.787 200.007 218.658 200.987C219.528 201.967 219.855 203.172 219.637 204.612L219.587 204.905ZM213.45 206.805C214.639 206.99 215.61 206.881 216.372 206.479C217.126 206.077 217.578 205.433 217.712 204.537L217.762 204.219C217.904 203.323 217.678 202.569 217.092 201.958C216.506 201.347 215.61 200.945 214.405 200.761L206.552 199.539L205.606 205.575L213.45 206.805ZM227.515 200.694L225.849 216.835L223.957 216.643L225.623 200.493L227.515 200.694ZM241.003 218.577C239.127 218.417 237.528 217.949 236.189 217.17C234.858 216.391 233.87 215.362 233.225 214.072C232.58 212.783 232.329 211.318 232.472 209.677L232.513 209.208C232.656 207.567 233.15 206.161 234.004 205.006C234.858 203.842 236.005 202.988 237.453 202.444C238.901 201.9 240.559 201.707 242.434 201.866C244.092 202.008 245.565 202.419 246.863 203.105C248.152 203.792 249.14 204.654 249.818 205.709C250.497 206.764 250.79 207.894 250.681 209.108L250.656 209.351L248.755 209.192L248.772 208.949C248.847 208.061 248.621 207.232 248.077 206.454C247.541 205.675 246.763 205.039 245.741 204.537C244.728 204.034 243.564 203.733 242.267 203.616C239.948 203.415 238.098 203.825 236.725 204.83C235.343 205.834 234.573 207.341 234.397 209.351L234.355 209.87C234.188 211.871 234.69 213.486 235.862 214.709C237.043 215.931 238.801 216.634 241.128 216.835C242.443 216.952 243.64 216.852 244.728 216.534C245.817 216.224 246.687 215.73 247.34 215.052C247.993 214.382 248.362 213.595 248.437 212.716L248.462 212.448L250.363 212.607L250.337 212.875C250.237 214.089 249.76 215.161 248.906 216.082C248.06 217.003 246.938 217.689 245.549 218.133C244.184 218.56 242.66 218.71 241.003 218.577ZM270.974 203.599L270.882 210.874L282.486 211.017L282.57 203.741L284.453 203.766L284.261 220L282.377 219.975L282.469 212.699L270.866 212.557L270.782 219.832L268.898 219.807L269.091 203.574L270.974 203.599ZM299.063 219.983C297.212 220.05 295.597 219.774 294.207 219.154C292.817 218.535 291.72 217.622 290.942 216.417C290.155 215.203 289.728 213.779 289.669 212.13L289.652 211.762C289.594 210.096 289.912 208.631 290.607 207.366C291.302 206.102 292.323 205.114 293.663 204.394C295.002 203.683 296.601 203.281 298.451 203.214C300.277 203.147 301.892 203.432 303.282 204.051C304.672 204.679 305.769 205.6 306.556 206.805C307.342 208.019 307.769 209.443 307.828 211.092L307.845 211.46C307.903 213.11 307.585 214.566 306.89 215.831C306.195 217.095 305.174 218.083 303.826 218.803C302.478 219.531 300.888 219.924 299.063 219.983ZM298.996 218.233C301.239 218.15 302.964 217.522 304.186 216.333C305.409 215.152 305.978 213.562 305.902 211.569L305.886 211.142C305.81 209.15 305.124 207.601 303.809 206.504C302.495 205.407 300.729 204.897 298.502 204.98C296.258 205.064 294.525 205.7 293.286 206.889C292.047 208.078 291.469 209.677 291.544 211.67L291.561 212.088C291.637 214.081 292.331 215.621 293.646 216.718C294.977 217.806 296.752 218.317 298.996 218.233ZM334.309 217.438L332.458 217.58L331.378 203.766L325.033 218.158L323.057 218.309L314.576 205.022L315.656 218.886L313.806 219.029L312.541 202.846L315.162 202.645L323.911 216.107L330.432 201.447L333.045 201.247L334.309 217.438ZM351.965 198.718L352.183 200.409L340.646 201.891L341.35 207.392L352.392 205.968L352.61 207.659L341.567 209.083L342.279 214.608L353.815 213.126L354.033 214.818L340.63 216.542L338.562 200.443L351.965 198.718ZM371.48 195.185L372.971 202.31L384.331 199.932L382.841 192.808L384.683 192.422L388.015 208.312L386.173 208.698L384.683 201.573L373.322 203.959L374.812 211.075L372.971 211.46L369.639 195.57L371.48 195.185ZM402.381 204.746C400.607 205.257 398.966 205.374 397.467 205.106C395.969 204.838 394.688 204.21 393.641 203.231C392.586 202.243 391.833 200.962 391.381 199.371L391.28 199.011C390.82 197.412 390.778 195.914 391.155 194.515C391.531 193.126 392.285 191.92 393.415 190.899C394.545 189.877 396.002 189.115 397.785 188.613C399.543 188.111 401.176 187.994 402.683 188.27C404.181 188.546 405.462 189.174 406.517 190.162C407.572 191.15 408.326 192.431 408.778 194.021L408.878 194.373C409.33 195.964 409.372 197.454 408.995 198.844C408.619 200.234 407.865 201.439 406.735 202.46C405.588 203.482 404.14 204.244 402.381 204.746ZM401.896 203.063C404.056 202.452 405.58 201.422 406.484 199.982C407.38 198.542 407.564 196.86 407.011 194.942L406.894 194.541C406.341 192.623 405.303 191.284 403.771 190.53C402.231 189.777 400.397 189.702 398.254 190.313C396.094 190.932 394.562 191.962 393.641 193.419C392.729 194.875 392.544 196.558 393.089 198.475L393.206 198.877C393.75 200.794 394.796 202.126 396.337 202.871C397.894 203.607 399.744 203.674 401.896 203.063ZM408.744 187.835L408.15 186.235L423.613 180.459L424.207 182.058L417.367 184.611L422.449 198.216L420.666 198.886L415.584 185.281L408.744 187.835ZM439.034 173.887L439.729 175.444L429.097 180.157L431.34 185.222L441.521 180.71L442.216 182.276L432.035 186.788L434.287 191.878L444.92 187.165L445.606 188.722L433.257 194.197L426.677 179.362L439.034 173.887ZM445.029 171.007L451.801 183.858L462.744 178.09L463.539 179.596L450.931 186.244L443.363 171.886L445.029 171.007Z" fill="white"/>
</svg>
